<?xml version="1.0" encoding="UTF-8"?><svg id="Layer_1" xmlns="http://www.w3.org/2000/svg" viewBox="0 0 384.11 37.01"><defs><style>.cls-1{fill:#ffd500;}.cls-2{fill:#1a1a1a;}</style></defs><path class="cls-1" d="m0,11.67V3.92C0,1.74,1.74,0,3.92,0h7.75c-1.31.52-2.52,1.22-3.74,1.92C4.18,4.18.87,7.75,0,11.67h0Z"/><path class="cls-2" d="m25.25,30.04c-3.83,2.35-8.44,3.05-12.01.35l-3.4,5.57c.52.35,1.04.7,1.48,1.04H3.92c-2.18,0-3.92-1.74-3.92-3.92V15.58c.17,1.04.61,2,1.22,3.05,4.35,7.14,11.32,5.22,18.28,2,4.53-2.09,8.36-2.79,10.19.17,2.09,3.48-.7,6.96-4.44,9.23h0Z"/><path class="cls-2" d="m37,3.92v16.63c-.26-1.13-.7-2.18-1.39-3.31-4.61-7.57-11.75-5.57-18.89-2.35-4.09,1.83-7.84,3.05-9.49.26-1.39-2.35-.44-5.48,4-8.18,3.48-2.09,7.49-2.18,9.66-1.04l3.31-5.31C23.85.35,23.42.17,23.07,0h10.01c2.18,0,3.92,1.74,3.92,3.92Z"/><path class="cls-1" d="m37,25.25v7.84c0,2.18-1.74,3.92-3.92,3.92h-7.66c.96-.44,2-.96,2.96-1.57,4.35-2.61,7.66-6.18,8.62-10.19h0Z"/><rect class="cls-2" x="256.25" y=".13" width="26.94" height="5.76"/><polygon class="cls-2" points="256.25 36.88 283.2 36.88 283.2 31.12 263.11 31.12 263.11 20.99 283.2 20.99 283.2 15.39 256.25 15.39 256.25 36.88"/><path class="cls-2" d="m76.07.13v6.39h-18.69c-3.27,0-4.83,1.87-4.83,4.36,0,2.18,1.09,4.36,5.45,4.36h8.57c9.97,0,12.3,5.61,12.3,10.9,0,6.23-3.27,10.75-11.68,10.75h-20.4v-6.39h20.71c3.43,0,5.14-1.87,5.14-4.52,0-2.34-1.25-4.52-5.76-4.52h-8.57c-9.81,0-12.15-5.45-12.15-10.59,0-6.07,3.27-10.59,11.37-10.59l18.53-.16h0Z"/><path class="cls-2" d="m92.42.13v14.95h18.84V.13h6.54v36.75h-6.54v-15.42h-18.84v15.42h-6.39V.13h6.39Z"/><path class="cls-2" d="m146.77.13c10.75,0,16.66,6.07,16.66,18.38s-5.92,18.22-16.66,18.22h-4.98c-10.75,0-16.66-5.92-16.66-18.22S131.2.13,141.79.13h4.98Zm-4.98,6.39c-7.01,0-10.12,3.58-10.12,11.99s3.11,11.84,10.12,11.84h4.98c7.01,0,10.12-3.43,10.12-11.99s-3.11-11.99-10.12-11.99l-4.98.16h0Z"/><path class="cls-2" d="m189.75.13c8.25,0,11.84,5.14,11.84,11.06,0,5.61-3.27,11.52-11.84,11.52h-11.37c-.62,0-.93.31-.93.93v13.24h-6.39v-14.48c0-4.2,1.71-5.76,5.76-5.76h13.24c3.58,0,5.14-2.49,5.14-5.14s-1.56-4.83-5.14-4.83h-19.16V.13h18.84Z"/><path class="cls-2" d="m214.36,36.88h-6.39V7.45c0-4.83,2.8-7.94,8.41-7.94,5.14,0,7.48,2.65,8.88,6.85l10.75,23.52c.47.93,1.09,1.56,2.34,1.56,1.4,0,2.18-.78,2.18-2.02V.13h6.54v29.28c0,4.83-2.8,8.1-8.41,8.1-5.14,0-7.48-2.65-9.03-6.85l-10.75-23.52c-.47-1.09-1.09-1.56-2.34-1.56-1.4,0-2.18.78-2.18,2.18v29.12h0Z"/><path class="cls-2" d="m321.82.13v6.39h-18.84c-3.27,0-4.83,1.87-4.83,4.36,0,2.18,1.09,4.36,5.45,4.36h8.57c9.97,0,12.3,5.61,12.3,10.9,0,6.23-3.27,10.75-11.68,10.75h-20.4v-6.39h20.71c3.43,0,5.14-1.87,5.14-4.52,0-2.34-1.25-4.52-5.76-4.52h-8.57c-9.81,0-12.15-5.45-12.15-10.59,0-6.07,3.27-10.59,11.37-10.59l18.69-.16h0Z"/><path class="cls-2" d="m355.15.13v6.39h-10.75v30.37h-6.39V6.51h-10.75V.13h27.88Z"/></svg>